<svg version="1.1"
	 xmlns="http://www.w3.org/2000/svg" xmlns:xlink="http://www.w3.org/1999/xlink" xmlns:a="http://ns.adobe.com/AdobeSVGViewerExtensions/3.0/"
	 x="0px" y="0px" width="1430.4px" height="2053.7px" viewBox="0 0 1430.4 2053.7"
	 style="enable-background:new 0 0 1430.4 2053.7;" xml:space="preserve">
<style type="text/css">
	.st0{fill:#FFFFFF;}
</style>
<defs>
</defs>
<g>
	<path class="st0" d="M671.8,1572.8c-137.2-23.5-175.9,17.7-186.7,39.2c-2.1,4.1,2,8.7,6.3,7.1c54.8-20.9,173.5-12.7,180.8-12.1
		c0.2,0,0.5,0,0.7,0c7.4-0.5,126-8.7,180.8,12.1c4.3,1.6,8.4-2.9,6.3-7.1c-10.8-21.5-49.5-62.7-186.7-39.2
		C672.9,1572.9,672.3,1572.9,671.8,1572.8z"/>
	<path class="st0" d="M1229.8,1288.6c0,0-92.8,266.3-261.7,455c0,0-267.8,330.1-267.8,69.9c0-12.5-8.2-23.3-20.7-23.8
		c-0.1,0-0.1,0-0.2,0c-0.1,0-0.1,0-0.2,0c-12.5,0.6-20.7,11.4-20.7,23.8c0,261.2-267.8-69.9-267.8-69.9
		c-168.8-188.8-261.7-455-261.7-455h0c-8.5-1.3-15.6,6.6-13.3,14.9c210.5,771.1,563.5,750.1,563.5,750.1s353,21,563.5-750.1
		C1245.4,1295.2,1238.4,1287.3,1229.8,1288.6L1229.8,1288.6z"/>
	<g>
		<path class="st0" d="M1410.3,273.3c-0.4-12.8-7.3-96.5-116.4-130.3c-6.1-1.9-10.9,5.3-6.9,10.3c19.1,23.5,48.3,68.4,26.2,103.2
			c-1.2,1.9-4,1.8-5-0.2c-14.4-27.4-97.6-181.1-166.6-221.1c-5.2-3-10.9,3.2-7.5,8.1c13.9,20.1,33.2,55.9,25.3,91.1
			c-0.6,2.6-4.2,3.1-5.4,0.7c-15.7-30.5-85.5-153.6-177.3-132.7c-6.7,1.5-9,9.9-4,14.6c9.9,9.3,23.3,22.2,25.6,26.5
			c0,0,12.9,23.1-8.6,19.3c0,0-560.3-108.8-741.8,181.3c-0.3,0.5-0.8,0.9-1.3,1.1C232,251.5,27.1,341.1,0.4,434.8
			c-0.1,0.2-0.1,0.4-0.1,0.6c-0.4,4.5-4.3,62.2,33.9,124.9c1.5,2.5,5.5,1.4,5.4-1.6c-1.2-35-1.7-142.9,35.7-124.4
			c1.4,0.7,2,2.2,1.5,3.7C71,452.8,42,539.4,71.2,700.8c0,0.1,0,0.3,0,0.4c0.2,6.1,3.6,222.5,16.1,375.8
			c1.2,14.6,22.7,14.7,24.6,0.1c15.7-119.4,56.6-343.5,159.3-370.8c0,0,149.7-41.6,164.2-18.6c0.7,1.1,0.6,2.5-0.3,3.5l-77.9,87.4
			c-4.2,4.7,1.6,11.7,7,8.3c75.9-47.1,258.2-151.7,312.1-107c6.5,5.4,15.3,7.2,23.3,4.7c42.2-13.1,167.6-48.3,312.9-55.3
			c0,0,178.7-17,197.5,100.6c0,0,33.6,196,34.5,347.6c0.1,14.1,20,16.9,24,3.3c73.3-252.5,212.4-765.8,143.3-805.2
			C1410.8,275.2,1410.3,274.3,1410.3,273.3z M720.3,629.2c-0.7,1.1-5.1,0.3-3.7-2C997.9,170.1,701.7,131.3,601.3,131
			c-3.5,0-4-5-0.6-5.7C1117.2,14.1,754.1,578.1,720.3,629.2z M722.5,508.1c-28.3-170.6-199.3-174-264.4-168.9
			c-3.4,0.3-4.4-4.6-1.1-5.7c233.8-77.7,268.6,86.6,271.3,174C728.4,511.2,723.1,511.7,722.5,508.1z M126.2,468.5
			c332.7-149,505.3,45.9,562.6,133.3c2,3-2.3,6.2-4.6,3.5C520.9,416.9,216,457.5,127.9,474C124.5,474.7,123,469.9,126.2,468.5z
			 M731,631.8c-2.4,1.8-5.7-1.6-3.5-3.4C1009.3,394.6,945.9,223,928.2,189.3c-1.2-2.3,1-4.8,3.4-4.1
			C1206.3,268,789.7,587.9,731,631.8z"/>
	</g>
</g>
</svg>
