<svg version="1.1"
	 xmlns="http://www.w3.org/2000/svg" xmlns:xlink="http://www.w3.org/1999/xlink" xmlns:a="http://ns.adobe.com/AdobeSVGViewerExtensions/3.0/"
	 x="0px" y="0px" width="2142px" height="359.9px" viewBox="0 0 2142 359.9" style="enable-background:new 0 0 2142 359.9;"
	 xml:space="preserve">
<style type="text/css">
	.st0{fill:#FFFFFF;}
</style>
<defs>
</defs>
<g>
	<path class="st0" d="M70.9,207.1l0.5,143.8H0V9.5h243.2V70H70.9l0.5,76.6h149.9v60.5H70.9z"/>
	<path class="st0" d="M516,9.5V70H334.6v71.4h166.6v60.5H334.6v88.5h189.4v60.5H264.7V9.5H516z"/>
	<path class="st0" d="M617.8,9.5v279.4h169.9v61.9H546.4V9.5H617.8z"/>
	<path class="st0" d="M881.1,9.5v341.3h-71.4V9.5H881.1z"/>
	<path class="st0" d="M976.3,227.5v123.3h-70.9V9.5h156.1c33,0,58.9,9.7,77.8,29.2c18.9,19.5,28.3,46.1,28.3,80
		c0,24.1-6.7,46.1-20,66c-19.1,28.5-48.8,42.7-89.2,42.7H976.3z M976.3,168.5h66.2c22.8,0,38.4-6.9,46.6-20.8
		c4.4-7.6,6.7-18.3,6.7-32.2c0-16.7-4.9-28.7-14.8-36c-9.8-7.3-25.9-10.9-48.1-10.9h-56.6V168.5z"/>
	<path class="st0" d="M1441.3,9.5V70H1260v71.4h166.6v60.5H1260v88.5h189.4v60.5H1190V9.5H1441.3z"/>
	<path class="st0" d="M1534.1,245.6h68.5c0,14,4.1,25.5,12.4,34.7c12.4,13.6,32.4,20.5,60,20.5c20.3,0,36.5-2.9,48.6-8.6
		c15.2-7.3,22.8-19.2,22.8-35.7c0-12.4-5.7-21.7-17.1-28.1c-7.6-4.1-22.5-8.9-44.7-14.3l-36.7-8.6c-36.5-8.6-61.4-17.4-74.7-26.7
		c-22.5-15.5-33.8-40.1-33.8-73.8c0-26.3,7.9-48.6,23.8-66.6C1585.7,12.9,1621.6,0,1670.7,0c46.6,0,81.9,13.2,105.7,39.5
		c18.1,20,27.1,43.6,27.1,70.9h-68.4c-1.6-13.6-5.5-24.1-11.9-31.4c-11.4-13.3-30.7-20-57.9-20c-16.1,0-29.4,2.9-39.9,8.6
		c-13,7.3-19.5,18.1-19.5,32.4c0,11.7,4.3,20.6,12.8,26.7c4.7,3.5,12.5,6.5,23.3,9l83.6,20.5c28.2,7,48.9,16,62.2,27.1
		c18,14.9,27.1,36.5,27.1,64.7c0,34.6-11.4,61.4-34.3,80.4c-25.1,20.9-58.5,31.4-100.4,31.4c-55.5,0-95.5-13.6-120-40.9
		C1542.9,299.6,1534.1,275.1,1534.1,245.6z"/>
	<path class="st0" d="M2142,120.9h-71.4c-4.4-16.5-10.5-28.9-18.1-37.1c-13-14.6-32.4-21.9-58.1-21.9c-21.9,0-40.1,7.8-54.7,23.3
		c-19.7,20.9-29.5,53-29.5,96.2c0,33.6,6.5,60.8,19.5,81.4c14.9,23.5,36.7,35.2,65.2,35.2c20,0,36.5-5.5,49.5-16.4
		c13-10.9,21.6-26.9,25.7-47.8h71.4c-7.3,39-22.8,69.3-46.6,90.9c-25.7,23.5-59.5,35.2-101.4,35.2c-47,0-84.4-15.1-112.3-45.2
		c-29.5-31.7-44.3-76.5-44.3-134.2c0-57.8,15.2-102.8,45.7-135.2C1910.8,15.1,1948.1,0,1994.4,0c46.3,0,83.1,13.8,110.4,41.4
		C2127.1,63.9,2139.4,90.4,2142,120.9z"/>
</g>
</svg>
